<svg width="223" height="49" viewBox="0 0 223 49" fill="none" xmlns="http://www.w3.org/2000/svg">
<g clip-path="url(#clip0_3108_121324)">
<mask id="mask0_3108_121324" style="mask-type:luminance" maskUnits="userSpaceOnUse" x="0" y="0" width="223" height="49">
<path d="M223 0H0V49H223V0Z" fill="white"/>
</mask>
<g mask="url(#mask0_3108_121324)">
<path d="M66.3647 35.0411H65.1521C64.8698 35.041 64.5915 34.9741 64.3398 34.8461C64.088 34.718 63.8699 34.5322 63.703 34.3039C63.2566 33.733 63.0276 33.0213 63.0569 32.2963V24.0784H65.4728C66.0755 24.1001 66.663 23.8863 67.1115 23.482C67.3242 23.2882 67.4935 23.0513 67.6081 22.787C67.7227 22.5227 67.7801 22.237 67.7763 21.9488C67.7851 21.6495 67.7304 21.3518 67.6158 21.0753C67.5012 20.7988 67.3293 20.5499 67.1115 20.3451C66.6632 19.9404 66.0755 19.7266 65.4728 19.7487H63.0569V15.2031C63.067 14.8796 63.0121 14.5574 62.8957 14.2556C62.7792 13.9538 62.6035 13.6785 62.3789 13.4462C62.1543 13.2138 61.8855 13.029 61.5884 12.9029C61.2912 12.7767 60.9719 12.7117 60.6492 12.7117C60.3266 12.7117 60.0072 12.7767 59.7101 12.9029C59.4129 13.029 59.1441 13.2138 58.9195 13.4462C58.695 13.6785 58.5192 13.9538 58.4028 14.2556C58.2863 14.5574 58.2315 14.8796 58.2415 15.2031V19.7393H57.2185C56.6159 19.7177 56.0284 19.9315 55.5798 20.3357C55.362 20.5405 55.1902 20.7894 55.0755 21.0659C54.9609 21.3424 54.9062 21.6401 54.915 21.9394C54.911 22.2277 54.9682 22.5135 55.0828 22.7778C55.1974 23.0422 55.3669 23.279 55.5798 23.4726C56.0284 23.8769 56.6159 24.0907 57.2185 24.069H58.2415V32.287C58.2231 33.6196 58.5292 34.9366 59.1334 36.1236C59.7004 37.2356 60.552 38.1764 61.6008 38.8496C62.662 39.5245 63.8956 39.8761 65.1521 39.8615H65.7935C66.4916 39.8857 67.1747 39.6546 67.7155 39.2111C67.9735 38.9964 68.18 38.7262 68.3198 38.4206C68.4596 38.1149 68.5291 37.7817 68.5231 37.4455C68.5423 36.8213 68.3267 36.2128 67.9191 35.7408C67.7257 35.5187 67.4866 35.3411 67.2183 35.2203C66.95 35.0996 66.6588 35.0384 66.3647 35.0411Z" fill="#0F172A"/>
<path d="M87.5339 20.209C86.1059 19.3262 84.3853 18.88 82.4212 18.88C80.5607 18.8472 78.7255 19.3158 77.1072 20.2372C75.5713 21.1299 74.3102 22.4297 73.4623 23.9939C72.5674 25.6781 72.1162 27.5637 72.1513 29.4718C72.1181 31.3829 72.5985 33.2677 73.5419 34.9285C74.4555 36.5106 75.7853 37.8102 77.3858 38.6852C78.7916 39.4306 80.3354 39.8779 81.9209 39.999C83.5065 40.1202 85.1 39.9128 86.6022 39.3896C87.7557 39.02 88.8373 38.4545 89.8 37.7179C90.0646 37.5367 90.2785 37.2904 90.4211 37.0027C90.5638 36.7149 90.6304 36.3953 90.6147 36.0743C90.5894 35.7588 90.5 35.4518 90.3518 35.1724C90.2036 34.8929 89.9999 34.6469 89.7532 34.4495C89.3349 34.0881 88.7948 33.9008 88.2433 33.9259C87.695 33.9431 87.1657 34.131 86.7286 34.4636C86.2037 34.8332 85.627 35.1228 85.0174 35.3229C84.3573 35.5663 83.6605 35.6942 82.9573 35.701C81.8042 35.7233 80.6654 35.4424 79.6542 34.8862C78.7256 34.364 77.9543 33.6008 77.4209 32.6768C77.1821 32.2623 76.9972 31.8188 76.8708 31.3572H89.6736C89.9697 31.3654 90.2646 31.3147 90.541 31.2079C90.8175 31.1011 91.0701 30.9404 91.2842 30.735C91.4957 30.5313 91.6631 30.2861 91.7759 30.0146C91.8887 29.7431 91.9444 29.4512 91.9397 29.1571C91.9777 27.3327 91.5981 25.5238 90.8301 23.8695C90.1057 22.3565 88.9611 21.0854 87.5339 20.209ZM82.4212 23.2074C83.3708 23.1774 84.308 23.4289 85.1157 23.9305C85.8596 24.4207 86.4523 25.1095 86.827 25.9193C87.0253 26.338 87.1768 26.7774 87.2788 27.2295H76.9176C77.0155 26.878 77.1432 26.5355 77.2992 26.2057C77.7261 25.2973 78.4088 24.5341 79.2632 24.0104C80.2205 23.4522 81.3145 23.1741 82.4212 23.2074Z" fill="#0F172A"/>
<path d="M109.539 28.5187C108.453 27.9434 106.964 27.4668 105.138 27.1099C104.181 26.9357 103.241 26.6772 102.329 26.3374C101.615 26.0439 101.362 25.7762 101.273 25.633C101.114 25.389 101.033 25.1025 101.039 24.8112C101.039 24.5083 101.123 24.1068 101.781 23.7945C102.531 23.4579 103.348 23.2973 104.169 23.3249C104.916 23.313 105.661 23.4127 106.379 23.6208C107.015 23.8316 107.593 24.1886 108.067 24.6633C108.523 25.0849 109.093 25.364 109.705 25.4663C110.021 25.5341 110.348 25.5365 110.665 25.4736C110.982 25.4106 111.283 25.2835 111.55 25.1C111.797 24.9267 112.002 24.7 112.15 24.4367C112.298 24.1734 112.385 23.8801 112.404 23.5785C112.417 23.2806 112.37 22.9832 112.266 22.7038C112.163 22.4244 112.004 22.1685 111.8 21.9514C110.961 20.9435 109.881 20.1649 108.661 19.6879C107.255 19.1353 105.754 18.8641 104.244 18.8896C102.982 18.8869 101.729 19.0989 100.538 19.5165C99.385 19.9032 98.3495 20.5788 97.5298 21.4794C96.6997 22.43 96.2597 23.6608 96.2985 24.9239C96.2896 25.6844 96.4499 26.4374 96.7678 27.1279C97.0857 27.8184 97.5532 28.4291 98.1361 28.9155C99.3066 29.9556 101.121 30.7046 103.67 31.2118C105.852 31.6039 106.821 32.0688 107.25 32.3858C107.952 32.9164 108.029 33.4048 108.017 33.7265C108.006 34.0481 107.91 34.5224 107.184 34.9756C106.561 35.363 105.609 35.5602 104.351 35.5602C103.405 35.5707 102.467 35.3811 101.598 35.0038C100.946 34.7516 100.353 34.368 99.8544 33.8767C99.4455 33.4238 98.8881 33.133 98.2836 33.0573C97.9467 33.0227 97.6062 33.0587 97.2838 33.163C96.9615 33.2673 96.6642 33.4376 96.4108 33.6631C96.1516 33.8535 95.9345 34.0958 95.7733 34.3747C95.6122 34.6535 95.5104 34.9629 95.4744 35.2832C95.4338 35.6151 95.4687 35.9519 95.5766 36.2683C95.6845 36.5847 95.8624 36.8724 96.0971 37.1099C96.9446 37.9599 98.1338 38.6643 99.632 39.2067C101.185 39.7563 102.822 40.0297 104.469 40.0144C106.243 40.0144 107.746 39.7303 108.963 39.1691C110.106 38.6712 111.086 37.8618 111.793 36.8329C112.443 35.8501 112.784 34.6944 112.772 33.5152C112.789 32.5086 112.521 31.5179 111.999 30.6577C111.498 29.8382 110.667 29.115 109.539 28.5187Z" fill="#0F172A"/>
<path d="M126.5 35.0411H125.287C125.005 35.0408 124.727 34.9739 124.475 34.8458C124.223 34.7177 124.005 34.5321 123.838 34.3039C123.392 33.733 123.163 33.0213 123.192 32.2963V24.0784H125.608C126.211 24.1011 126.799 23.8871 127.247 23.482C127.459 23.2882 127.629 23.0513 127.743 22.787C127.858 22.5227 127.915 22.237 127.911 21.9488C127.92 21.6495 127.865 21.3518 127.751 21.0753C127.636 20.7988 127.464 20.5499 127.247 20.3451C126.799 19.94 126.211 19.7261 125.608 19.7487H123.192V15.2031C123.202 14.8796 123.147 14.5574 123.031 14.2556C122.914 13.9538 122.739 13.6785 122.514 13.4462C122.289 13.2138 122.021 13.029 121.723 12.9029C121.426 12.7767 121.107 12.7117 120.784 12.7117C120.462 12.7117 120.142 12.7767 119.845 12.9029C119.548 13.029 119.279 13.2138 119.055 13.4462C118.83 13.6785 118.654 13.9538 118.538 14.2556C118.421 14.5574 118.366 14.8796 118.377 15.2031V19.7393H117.356C116.753 19.7191 116.166 19.9328 115.717 20.3357C115.5 20.5408 115.328 20.7897 115.214 21.0662C115.1 21.3427 115.046 21.6403 115.055 21.9394C115.051 22.2277 115.108 22.5135 115.223 22.7778C115.337 23.0422 115.507 23.279 115.72 23.4726C116.168 23.8778 116.755 24.0917 117.358 24.069H118.379V32.287C118.36 33.6196 118.667 34.9366 119.271 36.1236C119.834 37.2381 120.684 38.1822 121.731 38.859C122.792 39.5339 124.026 39.8854 125.282 39.8709H125.924C126.622 39.8951 127.305 39.664 127.846 39.2205C128.104 39.0058 128.31 38.7356 128.45 38.43C128.59 38.1243 128.659 37.7911 128.654 37.4549C128.674 36.8306 128.458 36.2216 128.05 35.7502C127.857 35.527 127.62 35.348 127.352 35.2256C127.085 35.1032 126.794 35.0403 126.5 35.0411Z" fill="#0F172A"/>
<path d="M142.608 28.2015L148.732 22.719C148.957 22.5214 149.14 22.281 149.272 22.0118C149.404 21.7426 149.481 21.4499 149.5 21.1505C149.516 20.8518 149.47 20.5529 149.364 20.273C149.259 19.9932 149.096 19.7386 148.886 19.5257C148.694 19.2925 148.455 19.1019 148.185 18.9661C147.915 18.8302 147.62 18.7521 147.319 18.7366C147.017 18.7212 146.716 18.7687 146.433 18.8763C146.151 18.9838 145.894 19.149 145.679 19.3614L138.033 26.2057V13.0171C138.043 12.6983 137.989 12.3808 137.875 12.0833C137.76 11.7859 137.587 11.5145 137.366 11.2855C137.144 11.0565 136.879 10.8743 136.586 10.75C136.294 10.6256 135.979 10.5615 135.661 10.5615C135.343 10.5615 135.028 10.6256 134.735 10.75C134.442 10.8743 134.178 11.0565 133.956 11.2855C133.735 11.5145 133.562 11.7859 133.447 12.0833C133.332 12.3808 133.278 12.6983 133.288 13.0171V37.4925C133.278 37.8113 133.332 38.1288 133.447 38.4263C133.562 38.7238 133.735 38.9951 133.956 39.2241C134.178 39.4532 134.442 39.6353 134.735 39.7596C135.028 39.884 135.343 39.9481 135.661 39.9481C135.979 39.9481 136.294 39.884 136.586 39.7596C136.879 39.6353 137.144 39.4532 137.366 39.2241C137.587 38.9951 137.76 38.7238 137.875 38.4263C137.989 38.1288 138.043 37.8113 138.033 37.4925V32.2964L139.117 31.3267L145.504 39.2464C145.694 39.4944 145.935 39.6989 146.21 39.8467C146.485 39.9944 146.789 40.0819 147.1 40.1034C147.163 40.1034 147.229 40.1034 147.292 40.1034C147.849 40.1015 148.387 39.9028 148.811 39.5423C149.061 39.3522 149.269 39.1121 149.421 38.8373C149.573 38.5624 149.667 38.2588 149.696 37.9456C149.719 37.6434 149.683 37.3396 149.589 37.0515C149.495 36.7635 149.345 36.4968 149.148 36.2668L142.608 28.2015Z" fill="#0F172A"/>
<path d="M171.138 18.9881C170.818 18.9802 170.5 19.0358 170.202 19.1519C169.904 19.2679 169.631 19.4421 169.401 19.6643C169.168 19.895 168.985 20.1716 168.864 20.4768C168.743 20.7819 168.687 21.1089 168.698 21.4371V31.5334C168.708 32.2387 168.497 32.9293 168.095 33.508C167.665 34.1261 167.086 34.624 166.411 34.9544C165.649 35.3283 164.809 35.5142 163.96 35.4968C163.055 35.5109 162.158 35.3182 161.338 34.9333C160.589 34.5677 159.971 33.9789 159.569 33.2474C159.126 32.4749 158.901 31.4653 158.901 30.2443V21.4371C158.912 21.1089 158.856 20.7821 158.738 20.476C158.619 20.1698 158.441 19.8906 158.213 19.6549C157.986 19.4192 157.713 19.2318 157.411 19.1038C157.11 18.9759 156.786 18.9099 156.459 18.9099C156.131 18.9099 155.807 18.9759 155.506 19.1038C155.205 19.2318 154.932 19.4192 154.704 19.6549C154.476 19.8906 154.298 20.1698 154.18 20.476C154.061 20.7821 154.006 21.1089 154.016 21.4371V30.2537C154.016 32.334 154.418 34.1232 155.219 35.5719C155.977 36.9878 157.131 38.1507 158.539 38.9178C159.988 39.685 161.607 40.0742 163.246 40.0495C164.839 40.0745 166.412 39.6906 167.816 38.9342C168.17 38.7373 168.51 38.516 168.834 38.2721C168.951 38.6106 169.144 38.9176 169.398 39.169C169.872 39.6215 170.5 39.8738 171.154 39.8738C171.808 39.8738 172.437 39.6215 172.91 39.169C173.132 38.9378 173.305 38.6648 173.421 38.3657C173.537 38.0667 173.592 37.7475 173.584 37.4268V21.4371C173.598 21.1114 173.545 20.7864 173.427 20.4826C173.309 20.1789 173.13 19.903 172.9 19.6727C172.67 19.4423 172.395 19.2625 172.092 19.1446C171.789 19.0268 171.465 18.9735 171.14 18.9881H171.138Z" fill="#0F172A"/>
<path d="M194.485 20.2842C193.116 19.4502 191.561 18.9706 189.962 18.8887C188.362 18.8067 186.767 19.1249 185.32 19.8147C184.556 20.1922 183.844 20.6656 183.199 21.2234V13.0877C183.192 12.6055 183.045 12.1357 182.776 11.7357C182.508 11.3357 182.129 11.0227 181.686 10.8349C181.243 10.647 180.755 10.5923 180.282 10.6776C179.809 10.7628 179.37 10.9843 179.02 11.315C178.787 11.5453 178.604 11.8219 178.483 12.1271C178.362 12.4324 178.306 12.7595 178.318 13.0877V29.4367C178.317 31.3278 178.801 33.1873 179.723 34.837C180.609 36.4086 181.894 37.7169 183.447 38.629C184.64 39.3362 185.96 39.7993 187.333 39.9915C188.705 40.1837 190.102 40.1013 191.442 39.7489C192.782 39.3965 194.039 38.7812 195.141 37.9385C196.243 37.0958 197.167 36.0425 197.861 34.8394C198.794 33.1952 199.273 31.331 199.249 29.439C199.276 27.5725 198.839 25.7285 197.978 24.0739C197.165 22.5252 195.96 21.2182 194.485 20.2842ZM188.759 35.5461C187.74 35.5618 186.737 35.2927 185.862 34.7689C184.987 34.2452 184.275 33.4874 183.805 32.5806C183.299 31.6105 183.041 30.5292 183.056 29.4343C183.037 28.3424 183.293 27.2633 183.801 26.2974C184.28 25.4117 184.986 24.6701 185.847 24.149C186.733 23.633 187.741 23.3612 188.766 23.3612C189.791 23.3612 190.798 23.633 191.685 24.149C192.543 24.678 193.249 25.4205 193.736 26.3045C194.255 27.2667 194.517 28.3474 194.497 29.4414C194.51 30.5364 194.248 31.617 193.733 32.583C193.254 33.4798 192.548 34.2339 191.685 34.7689C190.801 35.295 189.787 35.5626 188.759 35.5414V35.5461Z" fill="#0F172A"/>
<path d="M222.344 30.7209C222.556 30.5172 222.723 30.272 222.836 30.0005C222.949 29.729 223.004 29.4371 223 29.1431C223.033 27.3226 222.65 25.5187 221.881 23.8695C221.161 22.359 220.024 21.0882 218.603 20.209C217.175 19.3262 215.455 18.88 213.491 18.88C211.63 18.8472 209.795 19.3158 208.177 20.2372C206.641 21.1299 205.379 22.4297 204.532 23.9939C203.637 25.6781 203.185 27.5637 203.221 29.4718C203.186 31.3796 203.663 33.2618 204.602 34.9214C205.515 36.5035 206.845 37.8032 208.446 38.6782C209.852 39.4236 211.395 39.8708 212.981 39.992C214.566 40.1132 216.16 39.9057 217.662 39.3826C218.816 39.0129 219.897 38.4475 220.86 37.7108C221.125 37.5297 221.338 37.2834 221.481 36.9956C221.624 36.7079 221.69 36.3882 221.675 36.0673C221.649 35.7517 221.56 35.4448 221.412 35.1653C221.264 34.8858 221.06 34.6398 220.813 34.4425C220.395 34.0806 219.855 33.8933 219.303 33.9189C218.755 33.9366 218.226 34.1244 217.789 34.4565C217.264 34.8262 216.687 35.1158 216.077 35.3159C215.417 35.5593 214.72 35.6872 214.017 35.6939C212.864 35.7163 211.725 35.4354 210.714 34.8792C209.786 34.3569 209.014 33.5938 208.481 32.6697C208.242 32.2552 208.057 31.8118 207.931 31.3502H220.734C221.03 31.3575 221.325 31.3056 221.602 31.1976C221.878 31.0896 222.131 30.9275 222.344 30.7209ZM213.481 23.2074C214.402 23.164 215.315 23.3995 216.1 23.8831C216.886 24.3667 217.508 25.0762 217.887 25.9193C218.085 26.338 218.237 26.7774 218.339 27.2295H207.978C208.075 26.878 208.203 26.5355 208.359 26.2057C208.786 25.2973 209.469 24.5341 210.323 24.0104C211.28 23.4522 212.374 23.1741 213.481 23.2074Z" fill="#0F172A"/>
<path d="M39.0476 18.2719L21.5137 0.685572C21.0752 0.249685 20.4829 0.00512695 19.8656 0.00512695C19.2483 0.00512695 18.656 0.249685 18.2176 0.685572L0.683568 18.2719C0.248079 18.7077 0.00231083 19.2986 0 19.9155V29.0727C0.00231083 29.6896 0.248079 30.2805 0.683568 30.7162L18.2176 48.3026C18.656 48.7385 19.2483 48.9831 19.8656 48.9831C20.4829 48.9831 21.0752 48.7385 21.5137 48.3026L39.0476 30.7162C39.4831 30.2805 39.7289 29.6896 39.7312 29.0727V19.9155C39.7289 19.2986 39.4831 18.7077 39.0476 18.2719ZM37.5892 27.8987L34.2041 24.5011L37.5892 21.106V27.8987ZM32.741 23.0336L20.9003 11.1552V3.00303L36.805 18.9552L32.741 23.0336ZM8.4533 24.4988L19.8656 13.0524L31.2779 24.4988L19.8656 35.9475L8.4533 24.4988ZM18.8309 3.00303V11.1552L6.99018 23.0336L2.92623 18.9552L18.8309 3.00303ZM19.8656 47.0347V38.8802L32.741 25.9663L36.805 30.0541L19.8656 47.0347Z" fill="url(#paint0_linear_3108_121324)"/>
</g>
</g>
<defs>
<linearGradient id="paint0_linear_3108_121324" x1="7.1681" y1="37.2342" x2="32.6389" y2="11.8417" gradientUnits="userSpaceOnUse">
<stop stop-color="#B0B5D8"/>
<stop offset="0.13" stop-color="#9E9DD4"/>
<stop offset="0.41" stop-color="#7A70CB"/>
<stop offset="0.66" stop-color="#604FC5"/>
<stop offset="0.86" stop-color="#513AC1"/>
<stop offset="1" stop-color="#4B33C0"/>
</linearGradient>
<clipPath id="clip0_3108_121324">
<rect width="223" height="49" fill="white"/>
</clipPath>
</defs>
</svg>
